<svg width="34" height="34" viewBox="0 0 34 34" fill="none" xmlns="http://www.w3.org/2000/svg">
<path d="M12.9409 29.4289V25.0971C12.9409 23.9914 13.8439 23.0949 14.9578 23.0949H19.0295C19.5644 23.0949 20.0774 23.3059 20.4557 23.6814C20.8339 24.0569 21.0464 24.5661 21.0464 25.0971V29.4289C21.043 29.8886 21.2246 30.3307 21.5509 30.6569C21.8771 30.9832 22.3211 31.1667 22.7842 31.1667H25.5621C26.8595 31.17 28.1049 30.6607 29.0235 29.7512C29.9421 28.8416 30.4583 27.6066 30.4583 26.3186V13.9781C30.4583 12.9377 29.9938 11.9508 29.1899 11.2833L19.7399 3.79082C18.096 2.47714 15.7407 2.51955 14.146 3.89156L4.91161 11.2833C4.06972 11.9311 3.56654 12.9209 3.54167 13.9781V26.306C3.54167 28.9905 5.7338 31.1667 8.43792 31.1667H11.1524C12.1142 31.1667 12.8959 30.3963 12.9029 29.4415L12.9409 29.4289Z" fill="#1D49B9"/>
</svg>
