<svg width="32" height="32" viewBox="0 0 32 32" fill="none" xmlns="http://www.w3.org/2000/svg">
<path d="M12.2096 27.6952V23.6062C12.2096 22.5661 13.0575 21.7211 14.108 21.7141H17.9561C19.0117 21.7141 19.8673 22.5612 19.8673 23.6062V23.6062V27.7079C19.8671 28.5909 20.579 29.3126 21.4707 29.3333H24.0361C26.5935 29.3333 28.6667 27.2809 28.6667 24.7491V24.7491V13.1171C28.653 12.1211 28.1806 11.1858 27.384 10.5773L18.6103 3.58036C17.0732 2.36205 14.8883 2.36205 13.3512 3.58036L4.61603 10.59C3.81634 11.196 3.34318 12.1328 3.33333 13.1298V24.7491C3.33333 27.2809 5.4065 29.3333 7.96388 29.3333H10.5293C11.4431 29.3333 12.184 28.5999 12.184 27.6952V27.6952" stroke="#4A6DC7" stroke-width="1.5" stroke-linecap="round" stroke-linejoin="round"/>
</svg>
