<svg width="80" height="80" viewBox="0 0 80 80" fill="none" xmlns="http://www.w3.org/2000/svg">
<circle cx="40" cy="40" r="40" fill="#285FE9"/>
<path fill-rule="evenodd" clip-rule="evenodd" d="M32.9955 22.353C33.819 22.353 34.4876 23.0087 34.4876 23.8182C34.4876 24.6257 33.821 25.2814 32.9955 25.2814L29.8014 25.2833C27.1504 25.2871 24.9935 27.4041 24.9935 30.0056V33.6511C24.9935 34.4586 24.3229 35.1162 23.4994 35.1162C22.6759 35.1162 22.0073 34.4586 22.0073 33.6511V30.0056C22.0073 25.7909 25.5033 22.3588 29.7994 22.355L32.9935 22.353H32.9955ZM47.06 22.3536H50.1835C54.4914 22.3536 57.9933 25.7876 57.9933 30.0119V33.6517C57.9933 34.4592 57.3267 35.1168 56.5012 35.1168C55.6776 35.1168 55.009 34.4592 55.009 33.6517V30.0119C55.009 27.4027 52.8443 25.28 50.1835 25.28H47.06C46.2365 25.28 45.5678 24.6263 45.5678 23.8187C45.5678 23.0093 46.2365 22.3536 47.06 22.3536ZM45.4167 29.6916H34.5853C32.1069 29.7166 30.1147 31.7028 30.1363 34.135V36.5769C30.1422 36.8615 30.3755 37.0941 30.6657 37.1038H49.3324C49.6245 37.0961 49.8578 36.8634 49.8676 36.5769V34.135C49.8696 32.9602 49.4069 31.8316 48.5716 30.9913C47.7422 30.1588 46.6029 29.6916 45.4167 29.6916ZM19.9255 40.0809H60.0765C60.9 40.0809 61.5686 40.7366 61.5686 41.5461C61.5686 42.3536 60.9 43.0074 60.0765 43.0074H57.9941V49.9869C57.9941 54.2131 54.4902 57.6471 50.1843 57.6471H47.0608C46.2353 57.6471 45.5667 56.9915 45.5667 56.182C45.5667 55.3745 46.2353 54.7188 47.0608 54.7188H50.1843C52.8451 54.7188 55.0098 52.598 55.0098 49.9869V43.0074H49.8667V44.9513C49.8863 47.3835 47.8961 49.3716 45.4157 49.3947H34.5843C32.1059 49.3716 30.1157 47.3835 30.1353 44.9513V43.0074H24.9922V49.9946C24.9922 52.5961 27.151 54.713 29.8039 54.7169L32.9961 54.7188C33.8196 54.7188 34.4882 55.3745 34.4882 56.182C34.4863 56.9915 33.8196 57.6471 32.9941 57.6471L29.8 57.6452C25.5039 57.6414 22.0059 54.2093 22.0059 49.9946V43.0074H19.9255C19.102 43.0074 18.4314 42.3536 18.4314 41.5461C18.4314 40.7366 19.102 40.0809 19.9255 40.0809Z" fill="white"/>
</svg>
